<?xml version="1.0" standalone="no"?>
<!DOCTYPE svg PUBLIC "-//W3C//DTD SVG 20010904//EN"
 "http://www.w3.org/TR/2001/REC-SVG-20010904/DTD/svg10.dtd">
<svg version="1.0" xmlns="http://www.w3.org/2000/svg"
 width="880.000000pt" height="880.000000pt" viewBox="0 0 880.000000 880.000000"
 preserveAspectRatio="xMidYMid meet">
<metadata>
Created by potrace 1.11, written by Peter Selinger 2001-2013
</metadata>
<g transform="translate(0.000000,880.000000) scale(0.100000,-0.100000)"
fill="#000000" stroke="none">
<path d="M1620 4545 l0 -1855 1138 -2 1137 -3 3 -167 2 -167 -107 -3 -108 -3
-3 -173 -2 -172 720 0 720 0 -2 173 -3 172 -103 0 c-97 0 -103 1 -108 21 -3
12 -4 89 -2 170 l3 149 1138 3 1137 2 0 1855 0 1855 -2780 0 -2780 0 0 -1855z
m5330 80 l0 -1535 -2550 0 -2550 0 0 1535 0 1535 2550 0 2550 0 0 -1535z"/>
<path d="M4587 5340 c-19 -15 -88 -179 -301 -710 -152 -379 -276 -703 -276
-719 0 -74 90 -112 144 -62 18 17 108 230 301 712 151 379 275 698 275 709 0
74 -84 116 -143 70z"/>
<path d="M2881 4865 c-184 -111 -345 -213 -358 -225 -26 -25 -31 -84 -10 -112
24 -30 713 -438 742 -438 39 0 65 18 81 56 12 29 12 39 1 67 -12 27 -55 57
-286 196 -149 90 -273 166 -275 170 -3 4 119 81 270 171 152 90 280 172 285
181 18 34 10 89 -16 114 -49 50 -68 42 -434 -180z"/>
<path d="M5419 5057 c-39 -30 -50 -87 -24 -125 9 -12 137 -94 285 -182 149
-89 270 -164 270 -168 0 -4 -120 -79 -266 -167 -146 -87 -274 -170 -285 -183
-10 -14 -19 -38 -19 -54 0 -40 48 -88 88 -88 21 0 133 62 373 206 189 113 352
213 362 223 10 9 20 33 23 53 5 29 2 40 -22 66 -16 16 -180 120 -366 231 -346
207 -377 221 -419 188z"/>
</g>
</svg>
